<svg xmlns="http://www.w3.org/2000/svg" width="38.651" height="19.938" viewBox="0 0 38.651 19.938">
  <path id="Subtraction_84" data-name="Subtraction 84" d="M1160.3,4737.408h-32.65a3,3,0,0,1-3-3v-13.939a3,3,0,0,1,3-3h32.65a3,3,0,0,1,3,3v13.939A3,3,0,0,1,1160.3,4737.408Zm-14.757-15.938a.394.394,0,0,0-.394.394v10.214a.394.394,0,0,0,.394.393h3.142a.393.393,0,0,0,.392-.393v-10.214a.394.394,0,0,0-.392-.394Zm-5.5,0a.394.394,0,0,0-.394.394v10.214a.394.394,0,0,0,.394.393h3.142a.393.393,0,0,0,.392-.393v-10.214a.394.394,0,0,0-.392-.394Z" transform="translate(-1124.65 -4717.47)" fill="#fff"/>
</svg>