<svg id="Component_3_2" data-name="Component 3 – 2" xmlns="http://www.w3.org/2000/svg" width="38.651" height="19.938" viewBox="0 0 38.651 19.938">
  <path id="Subtraction_65" data-name="Subtraction 65" d="M1160.3,4737.408h-32.65a3,3,0,0,1-3-3v-13.939a3,3,0,0,1,3-3h32.65a3,3,0,0,1,3,3v13.939A3,3,0,0,1,1160.3,4737.408Zm-20.285-15.469c-.615,0-1,.492-1,1.283v8.434c0,.791.382,1.283,1,1.283a1.627,1.627,0,0,0,.8-.242l7.371-4.228a1.084,1.084,0,0,0,0-2.059l-7.371-4.228A1.622,1.622,0,0,0,1140.016,4721.938Z" transform="translate(-1124.65 -4717.47)" fill="#fff"/>
</svg>